PathFileType	4	(X/Y/Z)	C:/Users/opensim2020/Desktop/walking_exp_matlab/subject06_walking20_straight_02.trc																																																																																																																															
DataRate	CameraRate	NumFrames	NumMarkers	Units	OrigDataRate	OrigDataStartFrame	OrigNumFrames																																																																																																																											
100	100	7	43	mm	100	1307	105																																																																																																																											
Frame#	Time	LFHD			RFHD			LBHD			RBHD			C7			T10			CLAV			STRN			RBAK			LSHO			LUPA			LELB			LFRM			LWRA			LWRB			LFIN			RSHO			RUPA			RELB			RFRM			RWRA			RWRB			RFIN			LASI			RASI			LPSI			RPSI			LTHI			LKNE			LTIB			LANK			LHEE			LTOE			RTHI			RKNE			RTIB			RANK			RHEE			RTOE			*39			*40			*41			*42		
		X1	Y1	Z1	X2	Y2	Z2	X3	Y3	Z3	X4	Y4	Z4	X5	Y5	Z5	X6	Y6	Z6	X7	Y7	Z7	X8	Y8	Z8	X9	Y9	Z9	X10	Y10	Z10	X11	Y11	Z11	X12	Y12	Z12	X13	Y13	Z13	X14	Y14	Z14	X15	Y15	Z15	X16	Y16	Z16	X17	Y17	Z17	X18	Y18	Z18	X19	Y19	Z19	X20	Y20	Z20	X21	Y21	Z21	X22	Y22	Z22	X23	Y23	Z23	X24	Y24	Z24	X25	Y25	Z25	X26	Y26	Z26	X27	Y27	Z27	X28	Y28	Z28	X29	Y29	Z29	X30	Y30	Z30	X31	Y31	Z31	X32	Y32	Z32	X33	Y33	Z33	X34	Y34	Z34	X35	Y35	Z35	X36	Y36	Z36	X37	Y37	Z37	X38	Y38	Z38	X39	Y39	Z39	X40	Y40	Z40	X41	Y41	Z41	X42	Y42	Z42	X43	Y43	Z43
																																																																																																																																		
66	0.65	-191.041	1636.18848	-1497.57324	-201.13318	1617.53064	-1367.06494	-325.63733	1586.31494	-1510.35669	-334.61844	1573.17224	-1381.96802	-332.85474	1421.01404	-1460.9856	-362.492	1091.14465	-1456.0166	-221.38351	1345.59229	-1453.68884	-178.19795	1170.82043	-1465.21252	-406.82767	1247.24329	-1394.48743	-270.32129	1381.10229	-1617.73975	-236.95445	1187.58093	-1700.43237	-209.87968	1080.09412	-1720.70239	-93.41761	990.33496	-1735.0271	26.84047	964.4726	-1681.63513	-4.25814	913.21344	-1719.0769	84.17855	899.78925	-1718.3728	-280.90302	1373.19763	-1295.54358	-371.43085	1192.71008	-1217.8418	-395.87311	1073.23254	-1202.92969	-423.49725	956.56659	-1181.34021	-412.32819	802.44812	-1199.29602	-468.3027	826.27515	-1168.47754	-463.26224	741.85168	-1160.0658	-194.97011	928.81427	-1568.94531	-179.494	941.06232	-1348.94702	-349.19635	959.88855	-1528.20886	-331.23248	961.79456	-1360.80261	-316.08093	624.47388	-1618.38013	-360.85077	464.5354	-1597.38647	-524.3736	261.91376	-1596.88782	-628.10352	123.05936	-1561.18933	-674.60529	130.5497	-1520.02588	-513.18842	39.18565	-1550.45776	-148.20059	623.30212	-1277.49341	-94.69894	512.13385	-1309.64783	-45.63167	253.61539	-1300.32556	7.43098	73.10009	-1338.5575	-21.68429	36.81878	-1382.50378	161.47499	86.22826	-1344.02246	-294.38754	1674.06177	-1443.31458	NaN	NaN	NaN	NaN	NaN	NaN	NaN	NaN	NaN
67	0.66	-176.16855	1635.6748	-1496.21875	-186.13295	1616.93958	-1365.56995	-310.89786	1585.7229	-1508.78857	-319.73486	1572.63232	-1380.27173	-317.98599	1420.10193	-1459.19336	-345.957	1090.30273	-1454.41882	-205.99921	1345.19836	-1452.0072	-162.06256	1170.59436	-1463.58777	-391.09561	1246.09326	-1392.90588	-255.38042	1380.41467	-1615.89551	-221.96638	1187.05383	-1698.56226	-195.92249	1079.40625	-1718.81665	-79.07864	990.52576	-1732.81226	41.26912	966.1557	-1679.27893	10.87822	914.34222	-1716.37317	99.49455	902.02936	-1715.51025	-265.65683	1372.72009	-1293.88977	-355.63388	1191.98181	-1216.16187	-379.6517	1072.45459	-1201.29089	-406.90186	955.6994	-1179.73975	-395.30737	801.78577	-1197.5072	-451.25629	825.22754	-1166.88525	-446.21329	740.87982	-1158.39539	-178.06476	928.30774	-1567.66528	-162.16168	941.12592	-1347.83423	-332.55508	959.3385	-1527.00293	-314.54236	962.01025	-1359.35681	-299.02692	622.8266	-1616.67773	-341.99643	462.44745	-1595.68164	-512.64819	265.62561	-1595.23315	-621.39697	131.0508	-1559.95544	-666.93018	140.90076	-1518.75806	-512.00964	39.36541	-1549.7417	-129.91685	624.07343	-1278.75635	-77.21834	513.26056	-1311.39832	-34.23735	251.92238	-1301.22729	13.28345	71.10948	-1339.55725	-17.59144	39.91183	-1385.052	168.502	72.48563	-1342.03503	-279.54456	1673.49231	-1441.7854	NaN	NaN	NaN	NaN	NaN	NaN	NaN	NaN	NaN
68	0.67	-161.45047	1635.90503	-1494.83118	-171.1557	1617.15845	-1364.07385	-296.11926	1585.53333	-1507.19836	-304.69977	1572.44324	-1378.5896	-303.19946	1419.78247	-1457.3418	-329.45181	1089.65735	-1453.01355	-190.65726	1345.45483	-1450.36511	-146.13593	1170.91638	-1461.91296	-375.49023	1245.02161	-1391.06006	-240.69124	1380.03821	-1614.1366	-207.24548	1186.51526	-1696.54907	-182.30972	1078.70093	-1716.83472	-65.29536	990.35699	-1730.60156	55.09579	967.1076	-1676.99353	25.28117	914.69037	-1713.90686	113.95876	903.29944	-1712.6936	-250.2402	1372.6283	-1292.00793	-339.55389	1191.42603	-1214.26746	-363.15149	1071.76001	-1199.43652	-389.78162	954.87561	-1178.05627	-377.53183	800.7998	-1196.1095	-433.65848	824.11102	-1165.41748	-428.04407	739.92902	-1156.82263	-161.13689	927.93774	-1566.68689	-144.99519	941.34967	-1346.86011	-315.70953	958.867	-1525.89038	-297.69714	962.48492	-1357.60815	-280.9552	620.98895	-1615.04724	-321.89539	460.21323	-1593.85901	-499.40176	269.81534	-1593.08459	-612.91394	139.89114	-1558.05579	-657.09949	152.28049	-1516.46448	-510.67749	39.97564	-1548.91565	-112.3464	625.36835	-1279.30579	-60.37051	514.52515	-1311.65613	-22.54928	251.98543	-1300.9342	19.67517	72.55985	-1337.88599	-13.59637	42.61631	-1383.08472	174.24812	63.0698	-1341.28394	-264.81833	1673.39343	-1440.16333	NaN	NaN	NaN	NaN	NaN	NaN	NaN	NaN	NaN
69	0.68	-146.93474	1637.04883	-1493.40881	-156.28352	1618.32825	-1362.69128	-281.3931	1586.07092	-1505.50024	-289.66351	1573.05005	-1376.87854	-288.19577	1420.46667	-1455.39294	-313.15988	1089.55347	-1452.2793	-175.50201	1346.34546	-1448.59253	-130.8078	1171.6366	-1460.42676	-359.99936	1244.3114	-1388.90454	-226.06549	1380.18176	-1612.7168	-193.07295	1186.04956	-1694.45667	-168.9263	1078.11157	-1714.80396	-52.21328	989.90057	-1728.10291	68.33946	967.14307	-1674.91663	38.78814	914.41437	-1711.51697	127.62561	903.44324	-1709.92273	-234.70464	1372.99487	-1289.97925	-323.02121	1191.17725	-1212.17847	-346.22598	1071.25317	-1197.51111	-372.5289	954.2121	-1176.13831	-359.02521	800.43835	-1194.60938	-415.36057	823.255	-1163.85059	-409.17401	739.23145	-1155.32739	-144.5869	927.83478	-1565.5531	-128.13698	942.03369	-1345.89893	-298.86249	958.67963	-1525.10291	-281.24393	964.35394	-1356.48486	-261.86166	619.27155	-1613.1051	-300.23422	458.02997	-1592.13037	-484.22525	274.40738	-1590.43481	-602.23254	149.59198	-1555.69238	-644.45776	164.56903	-1513.47021	-509.17816	40.68305	-1547.95898	-95.85615	627.95837	-1278.69617	-44.40691	517.01764	-1309.74646	-9.66592	254.48389	-1298.48071	24.16119	71.45505	-1336.60193	-11.06045	43.87878	-1381.57593	177.64081	57.58699	-1340.08557	-250.33188	1674.0592	-1438.5498	NaN	NaN	NaN	NaN	NaN	NaN	NaN	NaN	NaN
70	0.69	-132.47546	1638.36853	-1492.02539	-141.41753	1619.83508	-1361.33325	-266.74551	1587.21252	-1503.76819	-274.69189	1574.30334	-1375.22034	-272.96835	1421.84521	-1453.55066	-297.32095	1090.18311	-1451.69519	-160.51767	1347.64063	-1446.97461	-115.4649	1172.95459	-1458.93042	-344.72867	1244.65002	-1386.46875	-211.27562	1380.98254	-1611.36182	-179.60753	1185.97546	-1692.32654	-155.7543	1077.8573	-1712.52612	-39.37545	989.11292	-1725.98157	81.01714	966.27661	-1673.0177	51.27398	913.35205	-1709.22461	140.35811	902.41125	-1707.42163	-219.09175	1373.7771	-1287.96692	-305.65549	1191.3822	-1210.14954	-328.6199	1071.15173	-1195.5459	-354.19376	953.8363	-1174.35962	-340.04788	800.15198	-1193.58411	-396.1991	822.58545	-1162.29529	-389.38843	738.75201	-1154.06897	-128.19933	928.13666	-1564.13806	-111.43707	943.50024	-1344.70471	-282.08658	958.77698	-1525.03369	-265.26132	966.7774	-1356.37036	-241.84407	617.73718	-1611.0448	-276.85602	455.84454	-1590.8103	-467.16144	279.57889	-1587.85352	-589.64581	160.38922	-1553.10815	-629.22638	177.67302	-1509.41296	-508.6149	41.05032	-1546.59033	-79.39197	631.67786	-1277.47791	-27.91082	520.58911	-1307.91418	1.01641	257.04901	-1296.79028	25.73657	72.01466	-1335.00195	-9.83703	44.95436	-1380.35376	178.97701	51.76249	-1339.27917	-235.81946	1675.33167	-1437.03687	NaN	NaN	NaN	NaN	NaN	NaN	NaN	NaN	NaN
71	0.7	-117.86025	1639.54211	-1490.7926	-126.52722	1621.30652	-1360.07751	-252.23293	1588.48083	-1502.04858	-259.66052	1575.88806	-1373.45837	-257.68481	1423.4696	-1451.65039	-281.94507	1091.36731	-1451.28162	-145.63036	1349.078	-1445.54724	-100.08648	1174.59802	-1457.58813	-329.44522	1245.85278	-1383.90662	-196.31012	1382.27148	-1609.9032	-166.52588	1186.62012	-1690.14868	-142.72974	1078.21484	-1709.94519	-27.2909	988.28168	-1723.58789	92.97608	964.59363	-1671.16846	62.62108	911.61505	-1706.6615	151.83235	900.10168	-1705.1709	-203.40782	1374.91443	-1286.26123	-288.76343	1191.69031	-1207.92749	-310.54803	1071.39136	-1193.66455	-335.20294	953.85223	-1172.65527	-319.98785	800.35046	-1192.40906	-376.19284	822.40216	-1160.56287	-368.85757	738.45129	-1152.66272	-110.80935	929.54773	-1562.29675	-95.24887	946.12128	-1343.3811	-265.44354	959.013	-1525.35388	-249.9072	969.29492	-1357.05212	-221.08781	616.24097	-1609.23682	-252.12482	453.86435	-1590.0188	-448.45078	285.41492	-1585.20557	-574.89545	171.51045	-1550.37952	-611.41156	191.32321	-1504.98303	-507.06143	43.26444	-1545.72925	-62.78746	635.6958	-1276.11987	-12.11757	523.59808	-1306.55847	9.10651	258.58505	-1294.73242	27.1032	72.59313	-1334.19788	-8.73944	45.69803	-1379.11096	180.4819	46.89995	-1339.82214	-221.02345	1676.73914	-1435.60352	NaN	NaN	NaN	NaN	NaN	NaN	NaN	NaN	NaN
72	0.71	-103.27966	1640.51807	-1489.70483	-111.57893	1622.60278	-1358.94275	-237.79659	1589.67261	-1500.4104	-244.89836	1577.39001	-1371.75671	-242.74646	1424.81982	-1449.89001	-266.88071	1092.95886	-1450.67004	-130.77234	1350.42603	-1444.22632	-84.70188	1176.23828	-1456.38672	-314.00339	1247.4762	-1381.47437	-181.28406	1383.80505	-1608.28015	-153.35045	1187.69629	-1687.94043	-129.79117	1079.2688	-1707.02808	-15.86157	987.45514	-1720.97083	104.33063	962.08295	-1669.31982	73.07333	909.21161	-1704.19348	162.14076	896.61646	-1703.23608	-187.71869	1376.27771	-1284.828	-271.23627	1192.38428	-1205.94983	-292.19205	1071.9447	-1191.90405	-315.6387	954.21417	-1170.87976	-299.32886	800.80908	-1191.18176	-355.4364	822.22809	-1158.71118	-347.5831	738.21326	-1151.3103	-94.69859	930.48993	-1560.20337	-79.56844	949.42328	-1342.04004	-249.1768	959.45691	-1525.75342	-234.99373	971.64435	-1357.85571	-199.86171	614.71545	-1607.76624	-226.83304	452.12988	-1589.56018	-428.14749	291.99731	-1582.79224	-558.75928	182.9975	-1547.81128	-592.29663	205.03056	-1501.71008	-501.62659	48.26429	-1544.87927	-46.44683	639.47339	-1274.99292	2.4027	525.70831	-1305.2356	16.25964	259.70071	-1293.75513	30.167	72.66062	-1334.07153	-7.23566	46.68832	-1378.44653	182.61694	43.67403	-1340.69348	-206.21019	1678.05237	-1434.22266	NaN	NaN	NaN	NaN	NaN	NaN	NaN	NaN	NaN
